<svg xmlns="http://www.w3.org/2000/svg" width="109.625" height="17.281"><path d="M.015 1.914h3.84v15.12h2.16V1.914h3.84V.234H.015v1.68zm14.035 7.2h5.28v-1.68h-5.28v-5.52h6V.234h-8.156v16.8h8.16v-1.68h-6v-6.24zm12.905-2.16l-2.64-6.72h-2.16l3.24 8.16-3.6 8.64h2.16l3-7.2 3 7.2h2.16l-3.6-8.64 3.24-8.16h-2.161zM41.41.234v7.44h-5.04V.234h-2.16v16.8h2.16v-7.68h5.04v7.68h2.16V.234h-2.16zm7.788.168a3.772 3.772 0 0 0-1.62 1.392 7.378 7.378 0 0 0-1.02 2.652 21.01 21.01 0 0 0-.348 4.188 21.007 21.007 0 0 0 .348 4.188 7.372 7.372 0 0 0 1.02 2.652 3.767 3.767 0 0 0 1.62 1.392 5.985 5.985 0 0 0 4.344 0 3.767 3.767 0 0 0 1.62-1.392 7.372 7.372 0 0 0 1.02-2.652 21.007 21.007 0 0 0 .348-4.188 21.01 21.01 0 0 0-.348-4.188 7.378 7.378 0 0 0-1.02-2.652 3.772 3.772 0 0 0-1.62-1.392 5.985 5.985 0 0 0-4.348 0zm1.044 15.12a2.543 2.543 0 0 1-.96-1.128 8.376 8.376 0 0 1-.66-2.208 20.547 20.547 0 0 1-.252-3.552 20.551 20.551 0 0 1 .252-3.552 8.386 8.386 0 0 1 .66-2.208 2.547 2.547 0 0 1 .96-1.128 2.2 2.2 0 0 1 2.256 0 2.547 2.547 0 0 1 .96 1.128 8.386 8.386 0 0 1 .66 2.208 20.551 20.551 0 0 1 .252 3.552 20.547 20.547 0 0 1-.252 3.552 8.376 8.376 0 0 1-.66 2.208 2.543 2.543 0 0 1-.96 1.128 2.2 2.2 0 0 1-2.256 0zm17.119-.648l3.48-10.32h.12l.72 12.48h2.16l-.96-16.8h-2.64l-3.912 11.52h-.1L62.317.234h-2.64l-.96 16.8h2.16l.72-12.48h.12l3.48 10.32h2.16zm16.5-2.16l1.08 4.32h2.16l-4.08-16.8h-3.127l-4.08 16.8h2.16l1.08-4.32h4.8zm-.36-1.68h-4.08l1.992-8.4h.1zm7.9-.6v-8.88h1.68a4.3 4.3 0 0 1 1.4.2 2.04 2.04 0 0 1 .972.708 3.376 3.376 0 0 1 .564 1.368 10.841 10.841 0 0 1 .18 2.16 10.841 10.841 0 0 1-.18 2.16 3.376 3.376 0 0 1-.564 1.368 2.038 2.038 0 0 1-.972.708 4.292 4.292 0 0 1-1.4.2h-1.68zm0 1.44a11.443 11.443 0 0 0 1.152.168 12.224 12.224 0 0 0 1.248.072 6.116 6.116 0 0 0 2.028-.3 3.084 3.084 0 0 0 1.416-1.008 4.719 4.719 0 0 0 .84-1.884 13.078 13.078 0 0 0 .276-2.928 11.993 11.993 0 0 0-.288-2.856 4.269 4.269 0 0 0-.912-1.848 3.463 3.463 0 0 0-1.632-1 8.675 8.675 0 0 0-2.448-.3 17.293 17.293 0 0 0-2 .108 11.34 11.34 0 0 0-1.836.372v16.56h2.16v-5.16zm8.373-9.96h3.84v15.12h2.16V1.914h3.84V.234h-9.84v1.68z" fill="#fff" fill-rule="evenodd"/></svg>